<svg width="184" height="184" viewBox="0 0 184 184" fill="none" xmlns="http://www.w3.org/2000/svg">
<rect width="184" height="184" fill="#051E3A"/>
<path d="M104.668 27.1373C104.408 27.2079 103.84 27.4397 103.416 27.6414C101.558 28.5385 99.989 29.0426 97.5918 29.5164C95.4546 29.9297 93.4233 30.4337 92.6242 30.7261C91.5364 31.1394 90.6988 31.7845 89.4858 33.1555C88.4749 34.2846 87.8973 34.7382 87.1656 34.96C86.9924 35.0104 85.9045 35.2825 84.7396 35.5547C81.5819 36.3007 80.908 36.6031 80.6096 37.3793C80.34 38.0648 80.4459 39.3652 80.8984 41.3007C81.2065 42.6112 81.5627 43.4479 82.1307 44.204C82.612 44.8391 83.6036 46.9258 83.6517 47.3996C83.6806 47.6919 83.6614 47.702 82.7179 48.0851C77.6059 50.1214 75.0355 50.5448 73.8417 49.5669C73.0908 48.952 72.8598 48.1455 72.7635 45.7766C72.7057 44.4661 72.6383 43.8814 72.5324 43.6596C72.311 43.2362 70.9632 41.8753 70.3471 41.4822C69.5769 40.9782 69.0667 40.7967 68.4409 40.7967C67.045 40.7967 66.5155 42.0064 67.1316 43.7705C67.7959 45.6657 67.8633 45.9177 67.9596 47.0467C68.1714 49.5568 68.5661 50.6456 69.7117 51.8351C71.1365 53.327 73.1101 53.9924 75.719 53.8714C78.0006 53.7706 80.032 53.1758 82.8431 51.7746C83.6036 51.3915 84.3449 51.0488 84.4701 51.0186C84.6915 50.9581 84.7107 50.9782 84.6433 51.1899C84.6048 51.321 84.3834 51.8149 84.162 52.2887C83.6036 53.4581 83.2763 54.446 83.1704 55.3029C83.0549 56.1496 82.8046 56.7343 82.2269 57.4702C81.2161 58.7706 81.1294 59.5368 81.9478 59.94C82.1884 60.0509 82.4195 60.1517 82.4772 60.1517C82.612 60.1517 82.5928 60.313 82.4484 60.4339C82.2943 60.5751 80.5807 61.1698 79.541 61.4622C75.2473 62.6416 73.0716 62.6719 71.0884 61.5932C70.5781 61.321 70.1449 60.9581 69.4325 60.2021C67.9981 58.7101 67.1605 57.3492 65.1773 53.3472C63.5022 49.9601 62.9053 49.0226 61.0569 46.8955C59.9979 45.6758 59.4973 44.9802 59.0737 44.1133C58.8042 43.5689 58.756 43.3572 58.7464 42.7524C58.7464 41.8149 58.9582 41.4822 60.0461 40.7463C61.9234 39.4761 62.8379 37.8733 62.8379 35.837C62.8379 34.2543 62.2892 32.9741 61.0954 31.7745C60.4986 31.1797 60.2771 31.0184 60.0461 31.0184C59.6514 31.0184 59.5551 31.2603 59.4781 32.5204C59.4011 33.6999 59.324 33.9217 58.8619 34.2745C58.5731 34.5164 57.803 34.9499 57.6874 34.9499C57.6586 34.9499 57.6393 34.839 57.6393 34.7079C57.6393 33.6091 56.8017 32.7523 55.0785 32.0668C53.8944 31.6031 52.7102 31.3813 51.3335 31.3813C49.9665 31.3712 49.3889 31.5023 48.4069 32.0265C47.7619 32.3591 47.502 32.6414 47.5886 32.8733C47.6271 32.9741 48.1951 33.3269 48.8594 33.6596C49.514 33.9922 50.2072 34.4055 50.3901 34.5769C50.7848 34.9398 51.3913 35.9781 51.7186 36.8652C51.9978 37.6112 52.0171 37.8733 51.8053 37.8733C51.6512 37.8733 51.4491 37.6717 50.3612 36.4318C50.0339 36.0688 49.6584 35.716 49.514 35.6555C48.8305 35.3934 47.1169 35.716 45.4514 36.4418C43.8437 37.1374 42.775 38.1959 43.0157 38.8511C43.1505 39.2443 43.6222 39.3955 44.9508 39.4963C46.1349 39.5769 46.6644 39.7181 46.6644 39.9802C46.6644 40.1213 47.3768 40.8068 47.9352 41.21C48.2432 41.4318 48.4935 41.6334 48.4935 41.6536C48.4935 41.714 47.9929 41.6132 47.1939 41.3915C46.8281 41.2806 46.4141 41.1999 46.2697 41.1999C45.9231 41.1999 45.4225 41.5729 44.4213 42.581C43.4971 43.5185 43.2371 43.6697 42.3803 43.7705C41.2155 43.9217 41.1577 44.5064 42.207 45.5447C42.8424 46.1798 43.4008 46.5629 44.7197 47.2383C46.0483 47.9339 46.4911 48.0951 46.8088 48.0145C46.934 47.9843 47.3672 47.6617 47.7715 47.2988C48.1759 46.9359 48.5706 46.6435 48.638 46.6435C48.7053 46.6435 48.9364 46.8451 49.1578 47.0972C49.6199 47.6213 49.6681 48.0246 49.3696 48.6496C48.9171 49.5669 47.8485 50.2323 46.5874 50.3835C45.1626 50.5548 44.5946 50.8875 44.479 51.6133C44.3443 52.4903 45.2588 53.5488 46.9436 54.446C47.5308 54.7585 48.0411 55.0912 48.0892 55.1819C48.2047 55.3835 48.1181 55.7061 47.7908 56.3916C46.9243 58.1759 46.9628 60.4843 47.8582 60.938C48.224 61.1295 48.4743 61.0388 49.0904 60.5045C49.3792 60.2626 49.8702 59.94 50.1783 59.7888C50.8811 59.4662 51.9208 59.3553 52.2 59.5771C52.3636 59.7081 52.3733 59.7585 52.2577 59.9803C52.1807 60.1214 51.786 60.6658 51.3721 61.1799C50.5249 62.2283 49.9665 63.1557 49.8799 63.6598C49.8028 64.0731 50.0435 64.3856 50.419 64.3856C50.6982 64.3856 51.2469 64.7485 52.5947 65.817C53.0664 66.19 53.8462 66.7142 54.3372 66.9763C54.8282 67.2384 55.2325 67.5106 55.2325 67.5711C55.2325 67.6316 54.9533 68.307 54.6068 69.0731C53.336 71.926 53.5478 72.299 57.0135 73.3574C58.3421 73.7607 58.4095 73.8514 57.8992 74.4965C57.1387 75.4744 56.9654 76.3413 57.3697 77.0974C57.7356 77.7728 58.7464 78.297 59.7091 78.297C61.1436 78.297 62.0678 79.1337 62.0678 80.4341C62.0678 81.2708 61.7308 81.8958 60.7585 82.8635C60.0557 83.5591 59.4685 84.3454 59.4685 84.5773C59.4685 84.799 59.8247 84.9503 60.3445 84.9503C60.8836 84.9503 60.9125 84.9603 60.9125 85.2023C60.9125 85.3333 60.8259 85.6861 60.7103 85.9785C60.3156 87.047 58.4191 90.9684 57.9763 91.6539C57.4853 92.3999 57.3794 92.531 56.3589 93.781C55.4732 94.8495 54.8378 95.8677 53.8558 97.8233C52.3251 100.868 50.727 102.944 49.4755 103.519C48.8016 103.831 48.5706 103.66 48.4454 102.743C48.301 101.684 47.5886 100.777 46.443 100.172C45.6632 99.7689 44.9797 99.7487 44.5464 100.132L44.248 100.404L43.4586 100.011C42.6884 99.6379 42.6403 99.6278 41.562 99.6177C40.7245 99.6177 40.3298 99.6681 39.935 99.8092C39.4152 100.001 38.6739 100.596 38.6739 100.827C38.6739 101.029 38.982 101.241 39.5885 101.432C40.8689 101.835 41.562 102.4 41.562 103.045C41.562 103.469 41.2443 103.882 40.503 104.406C39.7425 104.95 39.1264 105.717 38.6835 106.674C38.2022 107.702 38 108.59 38 109.628C38 110.908 38.1252 110.969 39.7329 110.505C40.3394 110.334 41.2925 110.303 41.5717 110.454C41.8123 110.596 41.8027 110.827 41.5428 111.261C40.8015 112.541 40.6667 113.217 40.9651 114.255C41.3214 115.475 42.6595 117.168 43.4586 117.4C44.0843 117.582 44.325 117.37 44.9219 116.12C45.5765 114.759 46.1349 114.255 46.8858 114.366C47.2613 114.426 48.0314 115.202 48.4743 115.999C48.7246 116.422 48.9364 116.684 49.1097 116.755C49.7066 116.977 51.0159 116.281 51.9786 115.213C52.6332 114.497 52.9798 113.882 53.1146 113.207C53.1723 112.924 53.2878 112.622 53.3745 112.551C53.4804 112.461 53.9906 112.41 54.9822 112.37C56.1664 112.329 56.4937 112.289 56.7055 112.138C56.8691 112.027 57.1483 111.584 57.4371 110.979C57.6971 110.434 57.9763 109.93 58.0629 109.86C58.1977 109.749 58.3228 109.829 58.9678 110.465C59.9691 111.452 60.643 111.805 61.5383 111.805C62.8572 111.815 63.6562 111.009 64.051 109.275C64.1761 108.731 64.1954 108.277 64.1472 107.047C64.1183 106.21 64.128 105.515 64.1761 105.515C64.2242 105.515 64.4745 105.696 64.7441 105.918C65.2929 106.382 65.9571 106.715 66.2941 106.725C66.6695 106.725 67.3242 106.342 67.5937 105.969C68.258 105.061 68.5083 103.942 68.6046 101.553C68.6431 100.515 68.7201 99.6177 68.7682 99.5673C68.8356 99.4967 69.1052 99.6479 69.5769 100.021C69.9716 100.333 70.5011 100.646 70.7707 100.727C71.4349 100.938 73.0523 100.918 73.6588 100.696C74.5156 100.384 74.5252 99.8496 73.7166 98.3979C72.8886 96.9161 72.9849 96.0088 73.9861 95.8677C74.583 95.787 75.2473 96.0794 76.3351 96.906C77.5 97.8032 78.5879 98.4383 79.9742 99.0431C82.0248 99.9302 84.0176 100.545 85.9719 100.888C86.6169 100.999 87.1656 101.11 87.2138 101.14C87.5315 101.342 86.9924 101.714 85.7986 102.118C83.5073 102.894 80.6192 103.428 78.0391 103.549C75.9212 103.64 74.6408 104.134 73.5722 105.263C72.465 106.432 71.9741 107.854 71.9644 109.9C71.9548 111.946 72.4073 113.832 73.4663 116.15C74.4675 118.328 75.4976 119.92 77.4615 122.299C78.7708 123.882 79.5025 124.951 79.8779 125.807C80.8599 128.086 80.186 129.83 77.0764 132.985C75.6516 134.426 74.4771 135.364 73.2352 136.049C72.1666 136.634 71.4157 136.866 70.5685 136.866C69.7117 136.866 69.2881 136.654 68.672 135.918C67.7959 134.87 66.5733 134.416 64.6671 134.416C62.4721 134.426 60.8451 135.132 60.3253 136.312C59.9306 137.209 60.152 137.41 61.365 137.239C62.578 137.078 62.9823 137.34 63.0979 138.378C63.1653 139.023 63.4444 139.386 64.1569 139.81C64.8019 140.193 64.8404 140.253 64.436 140.334C63.9932 140.424 63.6851 140.344 62.8861 139.91C62.2507 139.568 62.164 139.547 61.2976 139.547C59.815 139.558 58.7657 140.122 58.525 141.039C58.4672 141.251 58.1592 141.876 57.8415 142.441C56.9461 144.033 56.7921 144.668 57.1676 145.172C57.4275 145.515 57.8704 145.515 58.6501 145.183C58.9678 145.041 59.3144 144.931 59.4299 144.931C59.5358 144.931 59.9306 145.132 60.2964 145.374C61.0088 145.858 61.4516 146.009 62.4817 146.1C62.9727 146.14 63.2038 146.221 63.3963 146.392C63.6466 146.614 63.6466 146.654 63.6562 147.814C63.6659 148.832 63.7044 149.074 63.8777 149.427C64.1761 150.031 64.5997 150.374 65.0618 150.374C65.3891 150.374 65.5239 150.293 66.1208 149.719C66.9102 148.963 67.1798 148.791 67.7574 148.701C67.9884 148.66 68.4217 148.519 68.7105 148.388C69.7983 147.874 69.9042 147.854 70.2219 148.045C70.376 148.146 70.7514 148.529 71.0691 148.902C71.3772 149.275 71.8104 149.689 72.0222 149.82C72.8694 150.334 73.7358 150.233 74.4579 149.537C75.2473 148.771 75.5457 147.874 75.5457 146.17C75.5457 145.414 75.5842 145.021 75.6612 144.971C75.873 144.83 76.2678 145.505 76.6913 146.715C77.7696 149.779 78.4242 149.81 80.5133 146.876C80.9658 146.251 81.4086 145.697 81.4953 145.646C81.6301 145.566 81.8226 145.626 82.304 145.888C84.1042 146.876 84.807 146.231 85.6542 142.763C85.9815 141.422 86.1548 141.029 86.4917 140.868C86.7035 140.767 86.7613 140.787 86.9057 140.979C87.1079 141.241 87.2908 142.027 87.2908 142.662C87.2908 143.66 88.0706 145.031 88.6386 145.031C89.5435 145.031 90.7566 141.906 90.7566 139.558C90.7566 138.449 90.8336 138.257 91.1801 138.479C91.3053 138.56 91.6134 138.761 91.8637 138.922C92.5087 139.336 92.9323 139.477 93.6062 139.487C94.0587 139.487 94.2704 139.437 94.5208 139.255C94.9829 138.933 95.0791 138.58 94.8577 137.995C94.2704 136.443 94.694 135.122 96.2921 133.489C97.1875 132.572 97.303 132.42 97.4474 131.886C97.6784 131.049 97.6111 129.941 97.2741 129.174C96.8986 128.297 96.1092 127.501 95.0599 126.926C93.4618 126.029 93.1345 125.465 93.7217 124.608C94.0972 124.063 94.7614 123.459 94.9829 123.459C95.0791 123.459 95.5701 123.791 96.0803 124.205C97.2934 125.172 98.1694 125.757 100.047 126.836C102.165 128.055 103.368 128.912 104.235 129.809C104.639 130.233 105.168 130.727 105.428 130.908C106.15 131.432 107.498 132.047 109.385 132.723C113.043 134.043 114.43 134.729 115.171 135.586C115.97 136.523 116.182 137.824 115.797 139.416C115.556 140.394 115.392 140.717 114.786 141.382C113.977 142.299 111.975 143.519 111.301 143.519C110.916 143.519 110.56 143.116 110.069 142.138C109.587 141.181 108.981 140.495 108.268 140.092C107.768 139.82 107.565 139.759 107.036 139.759C106.324 139.749 105.861 139.93 105.024 140.525C104.745 140.727 104.263 140.969 103.946 141.06C102.954 141.352 101.539 142.793 101.539 143.519C101.539 144.043 102.242 144.426 103.185 144.426C103.946 144.426 104.523 144.981 104.523 145.727C104.523 146.009 104.446 146.15 104.08 146.483C103.031 147.461 102.742 147.814 102.511 148.408C102.386 148.741 102.011 149.537 101.674 150.173C100.904 151.664 100.74 152.209 100.788 153.096C100.836 153.953 101.077 154.306 101.635 154.306C102.049 154.306 102.242 154.175 103.156 153.277C103.907 152.541 104.138 152.451 104.6 152.763C104.822 152.925 105.062 152.945 106.381 152.925C107.238 152.904 107.989 152.945 108.085 152.995C108.182 153.046 108.451 153.449 108.692 153.882C109.51 155.364 110.338 156.1 111.05 155.989C111.484 155.908 111.705 155.687 112.042 154.981C112.206 154.648 112.591 154.124 112.937 153.771C113.274 153.429 113.64 152.955 113.756 152.723C114.218 151.755 114.93 152.572 115.075 154.225C115.152 155.142 115.267 155.374 115.614 155.283C116.191 155.122 118.492 152.743 118.916 151.846C119.253 151.14 119.224 150.818 118.771 150.112C118.386 149.517 118.271 149.064 118.521 149.064C118.694 149.064 119.08 149.376 119.879 150.173C120.254 150.545 120.745 150.949 120.976 151.08C122.045 151.644 123.007 150.898 123.007 149.497C123.007 149.326 123.046 149.154 123.104 149.114C123.152 149.084 123.412 149.175 123.691 149.316C124.018 149.497 124.269 149.568 124.423 149.517C125.385 149.265 126.926 147.41 127.301 146.07C127.513 145.293 127.677 145.142 128.35 145.072C129.814 144.9 130.353 144.003 129.689 142.854C129.14 141.906 129.072 141.755 129.072 141.382C129.072 140.898 129.458 139.981 129.775 139.719C129.958 139.568 130.276 139.487 131.046 139.406C132.201 139.285 132.683 139.084 132.962 138.59C133.193 138.176 133.058 137.773 132.702 137.773C132.365 137.773 132.009 137.441 131.835 136.947C131.518 136.07 131.152 133.126 131.344 133.015C131.393 132.985 131.778 133.116 132.201 133.318C133.048 133.711 133.857 133.852 133.982 133.64C134.117 133.418 133.973 132.824 133.597 131.957C133.164 130.989 132.808 130.424 132.086 129.578C130.892 128.176 130.391 127.118 130.285 125.697C130.151 124.023 129.746 123.317 128.61 122.733C127.994 122.42 127.917 122.4 126.906 122.41C126.03 122.41 125.751 122.451 125.318 122.642C123.932 123.247 123.816 123.277 123.152 123.287C122.276 123.287 121.602 123.126 120.629 122.652C118.56 121.644 116.548 119.628 115.575 117.582C115.026 116.432 114.911 115.948 114.767 114.285C114.641 112.773 114.622 112.692 114.247 111.946C114.035 111.513 113.862 111.13 113.862 111.1C113.862 110.989 114.102 111.13 114.834 111.684C115.238 111.987 116.471 112.713 117.578 113.307C120.485 114.86 120.87 115.223 121.9 117.39C122.593 118.832 123.229 119.588 124.201 120.092C124.808 120.394 125 120.444 125.674 120.465C126.415 120.485 126.762 120.374 126.762 120.122C126.762 120.071 126.492 119.719 126.155 119.336C125.414 118.489 125.25 118.035 125.424 117.269C125.578 116.573 126.04 115.505 126.223 115.434C126.309 115.404 126.618 115.565 126.974 115.827C128.543 116.997 131.017 118.005 132.702 118.166C133.511 118.237 134.213 118.126 134.252 117.904C134.271 117.813 133.992 117.36 133.636 116.896C132.837 115.838 132.538 115.213 132.538 114.527C132.538 113.852 132.817 113.408 133.443 113.086C134.656 112.45 136.37 112.864 137.862 114.124C138.882 115.001 139.441 114.84 139.653 113.61C139.807 112.753 139.556 111.735 138.911 110.666C138.401 109.809 138.42 109.739 139.412 108.852C139.884 108.438 140.461 107.823 140.702 107.481C142.165 105.404 142.935 102.4 142.81 99.2447C142.743 97.531 142.56 96.6036 141.838 94.3253C141.549 93.408 141.26 92.3193 141.203 91.8959C141.029 90.7971 141.193 90.3535 142.108 89.3152C142.955 88.3374 143.272 87.8737 143.792 86.7849C144.62 85.0712 145.102 83.1055 145.034 81.8151C145.005 81.2204 144.957 81.0793 144.745 80.8474C144.505 80.5954 144.476 80.5954 144.168 80.7164C143.686 80.928 142.329 82.4099 142.04 83.045C141.79 83.5994 141.183 84.4059 139.807 86.0087C137.872 88.2668 137.323 89.4261 137.188 91.6035C137.092 93.0047 137.073 93.0249 135.937 92.4301C133.645 91.2205 132.298 90.9886 127.917 91.0188C125.27 91.039 124.654 91.0188 123.903 90.8676C122.305 90.5551 120.899 89.9906 120.293 89.4362C119.879 89.0632 119.542 88.4785 119.542 88.1559C119.542 87.5108 120.302 86.5329 121.072 86.1801C121.496 85.9886 122.526 85.9785 126.136 86.0995C128.052 86.1599 129.015 86.1599 129.794 86.0692C132.615 85.7365 134.338 85.041 135.6 83.7305C136.341 82.9543 136.697 82.3091 137.255 80.6559C138.093 78.1962 138.738 77.0671 139.739 76.3413C139.951 76.1901 140.615 75.8373 141.222 75.555C141.819 75.2828 142.454 74.9401 142.627 74.799C143.754 73.9119 143.205 73.1961 141.309 73.0852C139.287 72.9643 137.66 73.5893 136.187 75.051C135.282 75.9381 134.724 76.7445 133.722 78.5994C132.452 80.928 131.624 81.7043 130.064 82.0268C129.64 82.1176 128.813 82.1377 127.224 82.0873C120.447 81.8958 119.619 81.8958 118.675 82.0672C117.693 82.2486 116.798 82.6317 116.297 83.0954C115.845 83.5188 115.373 84.4059 114.959 85.6257C114.632 86.5833 114.584 86.6741 114.526 86.422C114.43 86.0491 114.584 84.3252 114.757 83.7204C114.969 83.0148 115.325 82.4402 115.864 81.9059C117.039 80.7567 118.743 80.3131 122.016 80.3131C126.839 80.3131 129.246 79.6579 131.364 77.7929C131.951 77.2788 132.336 76.8554 134.685 74.1135C136.274 72.2687 136.909 71.805 138.796 71.1397C140.596 70.5046 142.021 69.5066 142.608 68.4582C142.926 67.8937 142.964 67.0469 142.685 66.8352C142.435 66.6437 142.213 66.6739 141.299 67.0167C139.951 67.5308 139.335 67.682 136.485 68.2263C134.656 68.5691 134.127 68.8917 132.115 70.9179C129.968 73.0752 129.217 73.7203 128.36 74.174C126.887 74.93 126.088 75.0308 120.36 75.1619C117.404 75.2324 116.403 75.2828 116.057 75.4038C115.806 75.4845 115.219 75.807 114.757 76.1195C114.006 76.6135 113.573 76.805 113.573 76.6337C113.573 76.4018 114.083 75.6256 114.555 75.1518C115.989 73.7002 118.791 72.8433 123.826 72.299C125.616 72.1074 126.223 72.0066 127.176 71.7445C129.149 71.2002 131.065 70.1316 132.586 68.7304C133.597 67.8029 134.002 67.6114 138.17 66.2001C138.863 65.9683 139.739 65.6154 140.134 65.434C141.597 64.7283 141.848 64.2747 140.962 63.9622C139.99 63.6195 135.263 63.7908 133.645 64.2344C132.278 64.6074 131.537 64.9904 129.458 66.3916C127.263 67.8735 126.261 68.3776 124.914 68.6699C124.346 68.8009 123.614 68.8312 120.986 68.8009C117.433 68.7707 117.751 68.7304 116.105 69.4461C115.826 69.5671 115.566 69.6376 115.537 69.5973C115.431 69.4864 116.066 68.7707 116.788 68.1759C117.828 67.3292 119.311 66.3715 120.745 65.6457C122.632 64.6779 123.335 64.436 125.992 63.7807C133.578 61.9259 138.95 59.1335 142.146 55.3835C144.899 52.1577 146.141 48.196 145.987 43.1153C145.93 41.1193 145.785 40.1818 145.323 38.7302C143.552 33.2059 137.823 29.7382 130.998 30.0507C128.851 30.1414 127.253 30.474 125.414 31.1898C120.726 33.0245 117.732 36.4922 116.885 41.0487C116.808 41.4923 116.702 42.8733 116.644 44.1233C116.538 46.5931 116.365 47.7322 115.922 48.7706C115.209 50.4339 114.064 50.4843 112.312 48.9318C111.031 47.7927 110.704 47.6415 110.492 48.0548C110.309 48.4177 110.367 50.444 110.588 51.1899C110.964 52.4903 111.878 53.569 112.976 54.0024C114.035 54.4258 114.853 54.3553 116.153 53.7303C117.039 53.3069 117.298 53.2867 117.722 53.6194C117.905 53.7605 118.646 54.2041 119.378 54.6174C121.178 55.6154 121.563 56.1093 121.255 57.0771C121.063 57.6718 120.639 57.9339 119.84 57.9339C119.022 57.9339 118.415 57.6416 117.635 56.8956C116.663 55.9581 116.076 55.7767 115.7 56.2807C115.402 56.6839 115.421 57.7726 115.729 58.4178C116.365 59.7283 118.04 60.5952 119.975 60.5952C121.563 60.5952 122.805 60.1517 123.72 59.2444C125.924 57.067 125.482 53.0649 122.642 49.4964C122.372 49.1637 122.064 48.7302 121.948 48.5387C121.544 47.8431 121.688 47.8834 123.027 48.821C124.143 49.6173 125.337 50.2726 126.743 50.8673C128.273 51.5024 129.458 52.5407 129.756 53.4682C129.92 54.0024 129.814 54.9702 129.525 55.575C129.39 55.8573 129.005 56.442 128.658 56.8855C127.956 57.7827 127.782 58.0952 127.879 58.2464C127.965 58.3976 128.533 58.2968 129.486 57.944C133.231 56.5831 135.012 53.7303 133.799 51.0286C133.202 49.6879 132.288 48.821 130.305 47.702C129.717 47.3693 129.217 47.0467 129.198 46.9863C129.169 46.9157 129.64 46.8552 130.642 46.8048C132.326 46.7242 133.029 46.6234 133.867 46.3512C136.389 45.5044 138.151 43.6495 138.497 41.4721C138.719 40.0911 138.305 38.8612 137.217 37.712C136.264 36.7039 135.811 36.5326 134.127 36.5225C132.683 36.5124 132.249 36.6535 131.989 37.2281C131.653 37.964 132.057 38.337 133.376 38.4781C134.319 38.5789 134.801 38.8108 135.118 39.2846C135.657 40.1213 135.099 41.3411 133.857 42.0266C133.279 42.3491 132.047 42.3391 131.239 42.0064C129.236 41.1999 127.917 39.1636 128.302 37.4801C128.437 36.8955 128.967 35.9882 129.515 35.4237C130.632 34.2644 132.278 33.8813 134.088 34.3551C136.63 35.0305 138.998 37.1676 140.24 39.9197C140.789 41.1294 141.02 42.1374 141.077 43.6294C141.212 46.9056 140.394 49.9802 138.796 52.198C138.083 53.196 136.63 54.5972 135.455 55.4137C134.358 56.19 131.951 57.4601 130.42 58.0851C128.427 58.9017 125.482 59.8694 122.767 60.6053C120.244 61.2807 119.185 61.6739 117.568 62.5207C114.574 64.0932 112.177 66.3009 110.309 69.2243C106.872 74.5873 106.237 81.0591 108.624 86.3616C109.635 88.5995 111.657 91.0793 113.563 92.3999C116.692 94.5673 120.639 95.5854 127.34 95.9382C132.721 96.2205 134.233 96.4423 135.86 97.2487C136.822 97.7124 137.458 98.2971 137.795 99.0229C138.584 100.727 137.448 104.033 135.407 105.969C131.864 109.336 125.664 109.618 119.879 106.674C117.096 105.263 114.67 103.106 112.86 100.424C112.158 99.3959 111.493 98.5895 108.721 95.404C105.861 92.1176 104.562 90.4039 103.589 88.66C103.253 88.0551 102.685 87.0773 102.309 86.4825C101.943 85.8978 101.635 85.3535 101.635 85.2829C101.635 85.2124 101.77 85.0511 101.934 84.9301C102.54 84.4664 102.646 83.791 102.299 82.7023C101.934 81.5531 101.029 80.1417 99.5654 78.4482C97.8902 76.5127 97.1104 75.4341 97.1104 75.051C97.1104 74.7385 97.2452 74.8494 97.7266 75.5853C99.4402 78.1962 102.877 80.6055 105.168 80.7869C105.842 80.8474 105.871 80.8373 106.15 80.5349C106.507 80.172 106.507 80.0813 106.285 78.4482C106.054 76.7143 106.044 71.4018 106.275 70.0308C106.641 67.8735 107.238 66.3211 108.018 65.5045C108.567 64.9199 108.788 64.8191 109.886 64.6376C112.119 64.2545 114.362 63.0348 115.123 61.7848C115.681 60.8674 115.383 60.2928 114.237 60.061C112.6 59.7283 111.821 59.3654 111.156 58.6396C109.876 57.2283 109.279 54.8089 108.942 49.7081C108.846 48.206 108.846 47.823 108.952 47.5609C109.106 47.1677 109.212 47.1072 110.059 46.9459C111.561 46.6637 112.572 46.331 113.65 45.7363C114.93 45.0407 115.594 44.2846 115.594 43.5387C115.594 43.1354 115.286 42.7624 114.661 42.3895C113.929 41.956 113.178 41.21 112.86 40.585C112.706 40.2927 112.389 39.4862 112.167 38.8007C111.599 37.0769 111.099 36.1999 110.107 35.1515C109.308 34.3047 108.49 33.6596 107.219 32.8934C106.468 32.4297 106.16 32.1575 106.16 31.9156C106.16 31.8148 106.314 31.3914 106.497 30.9579C106.949 29.9095 107.123 29.2744 107.123 28.599C107.123 27.2885 106.15 26.7139 104.668 27.1373ZM91.6615 45.5346C91.8926 45.8371 92.0851 46.4923 91.9696 46.6133C91.8926 46.6939 87.4737 46.452 86.8191 46.3411C86.2318 46.2302 86.0393 46.0992 86.0393 45.827C86.0393 45.585 86.2029 45.585 86.8094 45.8371C87.4833 46.1193 87.6855 46.0891 88.061 45.6859C88.2439 45.4943 88.4268 45.333 88.4749 45.333C88.5231 45.333 88.7349 45.4943 88.937 45.6859C89.1488 45.8774 89.3799 46.0387 89.4665 46.0387C89.5532 46.0387 89.842 45.8572 90.1019 45.6354C90.4966 45.3028 90.6699 45.2322 90.9972 45.2322C91.3438 45.2322 91.4593 45.2826 91.6615 45.5346ZM87.9166 50.2121C88.0802 50.3431 88.0802 50.3734 87.8299 51.1899C87.6759 51.6536 87.5218 52.077 87.4833 52.1274C87.3871 52.2282 86.3281 50.5851 86.3281 50.3532C86.3281 50.2726 86.357 50.1718 86.3955 50.1415C86.511 50.0105 87.7336 50.071 87.9166 50.2121ZM90.9106 50.202C90.9972 50.2827 90.2848 51.079 90.1308 51.079C90.0153 51.079 89.3125 50.3935 89.3125 50.2726C89.3125 50.2222 89.3895 50.1617 89.4858 50.1314C89.7168 50.0609 90.8336 50.1113 90.9106 50.202Z" fill="white"/>
</svg>
