<svg width="131" height="33" viewBox="0 0 131 33" fill="none" xmlns="http://www.w3.org/2000/svg">
<path d="M12.9632 4.02662C12.9126 4.04029 12.8022 4.08522 12.7198 4.1243C12.3585 4.29817 12.0534 4.39585 11.5873 4.48767C11.1717 4.56777 10.7767 4.66545 10.6214 4.72211C10.4098 4.80221 10.247 4.92724 10.0111 5.19293C9.81457 5.41174 9.70225 5.49965 9.55999 5.54263C9.52629 5.5524 9.31476 5.60515 9.08826 5.65789C8.47426 5.80246 8.34323 5.86107 8.2852 6.0115C8.23278 6.14435 8.25337 6.39637 8.34135 6.77146C8.40126 7.02543 8.47052 7.18758 8.58096 7.33411C8.67456 7.45719 8.86737 7.86159 8.87673 7.95341C8.88234 8.01006 8.8786 8.01202 8.69515 8.08625C7.70115 8.48089 7.20134 8.56294 6.96922 8.37344C6.82321 8.25426 6.77829 8.09797 6.75957 7.63887C6.74834 7.3849 6.73523 7.27159 6.71464 7.22861C6.67159 7.14656 6.40951 6.88282 6.28971 6.80663C6.13996 6.70895 6.04074 6.67378 5.91907 6.67378C5.64764 6.67378 5.54468 6.90822 5.66448 7.2501C5.79365 7.61738 5.80675 7.66622 5.82547 7.88503C5.86665 8.37148 5.9434 8.58248 6.16616 8.813C6.44321 9.10214 6.82696 9.23108 7.33425 9.20764C7.7779 9.1881 8.17288 9.07284 8.71949 8.80128C8.86737 8.72704 9.01151 8.66062 9.03584 8.65476C9.0789 8.64304 9.08264 8.64694 9.06954 8.68797C9.06205 8.71337 9.019 8.8091 8.97594 8.90092C8.86737 9.12754 8.80372 9.31899 8.78313 9.48505C8.76067 9.64916 8.712 9.76247 8.59968 9.90508C8.40313 10.1571 8.38628 10.3056 8.5454 10.3837C8.59219 10.4052 8.63712 10.4247 8.64835 10.4247C8.67456 10.4247 8.67082 10.456 8.64274 10.4794C8.61279 10.5068 8.27958 10.6221 8.07741 10.6787C7.24253 10.9073 6.81947 10.9132 6.43385 10.7041C6.33464 10.6514 6.2504 10.581 6.11188 10.4345C5.83296 10.1454 5.6701 9.88164 5.28448 9.10605C4.95876 8.44963 4.8427 8.26794 4.48329 7.85573C4.27738 7.61934 4.18004 7.48454 4.09767 7.31652C4.04526 7.21103 4.0359 7.17 4.03403 7.05278C4.03403 6.8711 4.07521 6.80663 4.28674 6.66401C4.65176 6.41786 4.8296 6.10723 4.8296 5.71259C4.8296 5.40588 4.7229 5.15777 4.49078 4.92528C4.37472 4.81002 4.33166 4.77876 4.28674 4.77876C4.20999 4.77876 4.19127 4.82565 4.17629 5.06985C4.16132 5.29843 4.14634 5.34141 4.05649 5.40978C4.00033 5.45667 3.85058 5.54068 3.82811 5.54068C3.8225 5.54068 3.81875 5.51919 3.81875 5.49379C3.81875 5.28084 3.65589 5.11479 3.32082 4.98194C3.09057 4.89207 2.86032 4.84909 2.59263 4.84909C2.32682 4.84714 2.2145 4.87254 2.02356 4.97412C1.89814 5.0386 1.8476 5.0933 1.86445 5.13823C1.87194 5.15777 1.98238 5.22614 2.11155 5.29061C2.23884 5.35508 2.37362 5.43518 2.40918 5.46839C2.48593 5.53872 2.60387 5.73995 2.66751 5.91187C2.7218 6.05643 2.72554 6.10723 2.68436 6.10723C2.65441 6.10723 2.6151 6.06816 2.40357 5.82786C2.33992 5.75753 2.26692 5.68915 2.23884 5.67743C2.10593 5.62664 1.77272 5.68915 1.44888 5.82981C1.13627 5.96461 0.928481 6.16974 0.97528 6.29673C1.00149 6.37292 1.09321 6.40223 1.35154 6.42176C1.58179 6.43739 1.68474 6.46474 1.68474 6.51554C1.68474 6.54289 1.82327 6.67573 1.93184 6.75388C1.99174 6.79686 2.04041 6.83593 2.04041 6.83984C2.04041 6.85156 1.94307 6.83202 1.7877 6.78905C1.71657 6.76756 1.63607 6.75193 1.60799 6.75193C1.5406 6.75193 1.44326 6.82421 1.24858 7.01957C1.06888 7.20126 1.01833 7.23056 0.851732 7.2501C0.625227 7.27941 0.613996 7.39272 0.818037 7.59394C0.941585 7.71702 1.05016 7.79126 1.30661 7.92215C1.56494 8.05695 1.65105 8.08821 1.71282 8.07258C1.73716 8.06672 1.8214 8.0042 1.90002 7.93387C1.97864 7.86354 2.05539 7.80688 2.06849 7.80688C2.08159 7.80688 2.12652 7.84596 2.16958 7.8948C2.25943 7.99639 2.26879 8.07453 2.21076 8.19566C2.12278 8.37344 1.91499 8.50238 1.66977 8.53168C1.39272 8.56489 1.28228 8.62936 1.25981 8.77002C1.23361 8.93999 1.41144 9.14512 1.73903 9.31899C1.85322 9.37955 1.95243 9.44403 1.96179 9.46161C1.98425 9.50068 1.96741 9.5632 1.90376 9.69604C1.73529 10.0418 1.74277 10.4892 1.91686 10.5771C1.988 10.6142 2.03667 10.5967 2.15647 10.4931C2.21263 10.4462 2.3081 10.3837 2.368 10.3544C2.50465 10.2919 2.70682 10.2704 2.76111 10.3134C2.79293 10.3388 2.7948 10.3486 2.77234 10.3915C2.75736 10.4189 2.68061 10.5244 2.60012 10.624C2.43539 10.8272 2.32682 11.0069 2.30997 11.1046C2.295 11.1847 2.34179 11.2453 2.4148 11.2453C2.46909 11.2453 2.57579 11.3156 2.83786 11.5227C2.92958 11.595 3.08121 11.6966 3.17668 11.7474C3.27215 11.7981 3.35077 11.8509 3.35077 11.8626C3.35077 11.8743 3.29648 12.0052 3.22909 12.1537C2.982 12.7066 3.02318 12.7789 3.69708 12.984C3.9554 13.0621 3.96851 13.0797 3.8693 13.2048C3.72141 13.3943 3.68772 13.5623 3.76634 13.7088C3.83747 13.8397 4.03403 13.9413 4.22122 13.9413C4.50014 13.9413 4.67984 14.1034 4.67984 14.3554C4.67984 14.5176 4.61433 14.6387 4.42526 14.8263C4.28861 14.9611 4.17442 15.1135 4.17442 15.1584C4.17442 15.2014 4.24368 15.2307 4.34477 15.2307C4.4496 15.2307 4.45521 15.2326 4.45521 15.2795C4.45521 15.3049 4.43836 15.3733 4.4159 15.4299C4.33915 15.637 3.97038 16.397 3.88427 16.5298C3.7888 16.6744 3.76821 16.6998 3.56979 16.942C3.39757 17.1491 3.27402 17.3464 3.08308 17.7255C2.78544 18.3154 2.4747 18.7179 2.23135 18.8293C2.10031 18.8898 2.05539 18.8566 2.03105 18.6788C2.00297 18.4737 1.86445 18.2979 1.64169 18.1806C1.49006 18.1025 1.35715 18.0986 1.27292 18.1728L1.21489 18.2256L1.06139 18.1494C0.911634 18.0771 0.902274 18.0752 0.692617 18.0732C0.529758 18.0732 0.453009 18.083 0.376259 18.1103C0.275175 18.1474 0.131036 18.2627 0.131036 18.3076C0.131036 18.3467 0.190938 18.3877 0.30887 18.4249C0.557837 18.503 0.692617 18.6124 0.692617 18.7374C0.692617 18.8195 0.630843 18.8996 0.486704 19.0012C0.338821 19.1067 0.219017 19.2551 0.132908 19.4407C0.0393107 19.64 0 19.8119 0 20.0132C0 20.2613 0.0243352 20.273 0.336949 20.1831C0.454881 20.1499 0.640203 20.144 0.694489 20.1733C0.741287 20.2007 0.739415 20.2456 0.688873 20.3296C0.544734 20.5777 0.518527 20.7086 0.576557 20.9099C0.645818 21.1463 0.906018 21.4745 1.06139 21.5194C1.18306 21.5546 1.22986 21.5135 1.34592 21.2713C1.47321 21.0075 1.58179 20.9099 1.7278 20.9314C1.8008 20.9431 1.95056 21.0935 2.03667 21.2478C2.08534 21.3299 2.12652 21.3807 2.16022 21.3944C2.27628 21.4373 2.53086 21.3025 2.71805 21.0955C2.84535 20.9568 2.91273 20.8376 2.93894 20.7067C2.95017 20.652 2.97264 20.5934 2.98948 20.5797C3.01008 20.5621 3.10929 20.5524 3.3021 20.5445C3.53235 20.5367 3.59599 20.5289 3.63717 20.4996C3.669 20.4781 3.72328 20.3922 3.77944 20.2749C3.82998 20.1694 3.88427 20.0718 3.90112 20.0581C3.92733 20.0366 3.95166 20.0522 4.07708 20.1753C4.27176 20.3668 4.4028 20.4351 4.57689 20.4351C4.83334 20.4371 4.98871 20.2808 5.06546 19.9448C5.0898 19.8393 5.09354 19.7514 5.08418 19.513C5.07857 19.3509 5.08044 19.2161 5.0898 19.2161C5.09916 19.2161 5.14783 19.2512 5.20024 19.2942C5.30694 19.3841 5.43611 19.4486 5.50162 19.4505C5.57463 19.4505 5.70192 19.3763 5.75434 19.304C5.8835 19.1282 5.93217 18.9113 5.95089 18.4483C5.95838 18.2471 5.97335 18.0732 5.98271 18.0634C5.99582 18.0498 6.04823 18.0791 6.13996 18.1513C6.2167 18.2119 6.31966 18.2725 6.37208 18.2881C6.50124 18.3291 6.81572 18.3252 6.93366 18.2822C7.10026 18.2217 7.10213 18.1181 6.94489 17.8368C6.7839 17.5496 6.80262 17.3738 6.9973 17.3464C7.11336 17.3308 7.24253 17.3875 7.45406 17.5477C7.68056 17.7215 7.89209 17.8446 8.16165 17.9618C8.56037 18.1338 8.94786 18.2529 9.32787 18.3194C9.45329 18.3408 9.55999 18.3623 9.56935 18.3682C9.63112 18.4073 9.52629 18.4796 9.29417 18.5577C8.84865 18.7081 8.28707 18.8117 7.78539 18.8351C7.37356 18.8527 7.12459 18.9484 6.91681 19.1672C6.70154 19.3939 6.60607 19.6693 6.6042 20.0659C6.60232 20.4625 6.69031 20.8278 6.89622 21.2771C7.0909 21.6991 7.2912 22.0078 7.67307 22.4689C7.92766 22.7756 8.06992 22.9827 8.14293 23.1487C8.33387 23.5902 8.20283 23.9282 7.5982 24.5397C7.32115 24.8191 7.09277 25.0008 6.85129 25.1336C6.64351 25.2469 6.4975 25.2919 6.33277 25.2919C6.16616 25.2919 6.0838 25.2508 5.96399 25.1082C5.79365 24.905 5.55591 24.8171 5.18527 24.8171C4.75847 24.8191 4.44211 24.9558 4.34102 25.1844C4.26427 25.3583 4.30733 25.3973 4.54319 25.3641C4.77906 25.3329 4.85768 25.3837 4.88014 25.5849C4.89325 25.7099 4.94753 25.7803 5.08605 25.8623C5.21147 25.9365 5.21896 25.9483 5.14034 25.9639C5.05423 25.9815 4.99433 25.9659 4.83896 25.8818C4.71541 25.8154 4.69856 25.8115 4.53009 25.8115C4.24181 25.8135 4.03777 25.9229 3.99097 26.1007C3.97974 26.1417 3.91984 26.2628 3.85806 26.3722C3.68397 26.6809 3.65402 26.804 3.72703 26.9016C3.77757 26.9681 3.86368 26.9681 4.01531 26.9036C4.07708 26.8762 4.14447 26.8548 4.16693 26.8548C4.18752 26.8548 4.26427 26.8938 4.33541 26.9407C4.47393 27.0345 4.56004 27.0638 4.76034 27.0814C4.85581 27.0892 4.90073 27.1048 4.93817 27.138C4.98684 27.181 4.98684 27.1888 4.98871 27.4135C4.99059 27.6108 4.99807 27.6577 5.03177 27.7261C5.0898 27.8433 5.17216 27.9097 5.26202 27.9097C5.32566 27.9097 5.35187 27.8941 5.46793 27.7827C5.62143 27.6362 5.67384 27.603 5.78616 27.5854C5.83109 27.5776 5.91532 27.5502 5.97148 27.5248C6.18301 27.4252 6.2036 27.4213 6.26538 27.4584C6.29533 27.478 6.36833 27.5522 6.43011 27.6245C6.49001 27.6968 6.57424 27.7769 6.61543 27.8023C6.78016 27.9019 6.94863 27.8824 7.08903 27.7476C7.24253 27.5991 7.30056 27.4252 7.30056 27.0951C7.30056 26.9485 7.30804 26.8723 7.32302 26.8626C7.3642 26.8352 7.44095 26.9661 7.52332 27.2005C7.73297 27.7944 7.86027 27.8003 8.26648 27.2318C8.35446 27.1107 8.44057 27.0032 8.45741 26.9935C8.48362 26.9778 8.52106 26.9896 8.61466 27.0403C8.96471 27.2318 9.10136 27.1068 9.26609 26.4347C9.32974 26.1749 9.36343 26.0987 9.42895 26.0674C9.47013 26.0479 9.48136 26.0518 9.50944 26.0889C9.54875 26.1397 9.58432 26.2921 9.58432 26.4152C9.58432 26.6086 9.73595 26.8743 9.84639 26.8743C10.0224 26.8743 10.2582 26.2687 10.2582 25.8135C10.2582 25.5986 10.2732 25.5615 10.3406 25.6044C10.3649 25.6201 10.4248 25.6591 10.4735 25.6904C10.5989 25.7705 10.6813 25.7978 10.8123 25.7998C10.9003 25.7998 10.9415 25.79 10.9901 25.7549C11.08 25.6923 11.0987 25.624 11.0557 25.5107C10.9415 25.2098 11.0238 24.9539 11.3346 24.6374C11.5087 24.4596 11.5311 24.4303 11.5592 24.3268C11.6041 24.1646 11.591 23.9497 11.5255 23.8012C11.4525 23.6313 11.299 23.4769 11.095 23.3656C10.7842 23.1917 10.7206 23.0823 10.8348 22.9162C10.9078 22.8107 11.0369 22.6935 11.08 22.6935C11.0987 22.6935 11.1942 22.758 11.2934 22.8381C11.5293 23.0256 11.6996 23.139 12.0646 23.348C12.4765 23.5844 12.7105 23.7504 12.8789 23.9243C12.9576 24.0064 13.0605 24.1021 13.1111 24.1373C13.2514 24.2388 13.5135 24.358 13.8804 24.4889C14.5918 24.7448 14.8613 24.8777 15.0055 25.0437C15.1608 25.2254 15.202 25.4774 15.1271 25.7861C15.0803 25.9756 15.0485 26.0381 14.9306 26.1671C14.7733 26.3449 14.384 26.5812 14.2529 26.5812C14.1781 26.5812 14.1088 26.5031 14.0133 26.3136C13.9197 26.128 13.8018 25.9952 13.6633 25.917C13.5659 25.8643 13.5266 25.8525 13.4237 25.8525C13.2851 25.8506 13.1953 25.8858 13.0324 26.001C12.9781 26.0401 12.8845 26.087 12.8228 26.1046C12.63 26.1612 12.3548 26.4406 12.3548 26.5812C12.3548 26.6828 12.4914 26.7571 12.6749 26.7571C12.8228 26.7571 12.9351 26.8645 12.9351 27.0091C12.9351 27.0638 12.9201 27.0911 12.849 27.1556C12.6449 27.3451 12.5888 27.4135 12.5439 27.5288C12.5195 27.5932 12.4465 27.7476 12.381 27.8706C12.2312 28.1598 12.1994 28.2653 12.2088 28.4372C12.2181 28.6033 12.2649 28.6716 12.3735 28.6716C12.454 28.6716 12.4914 28.6462 12.6693 28.4724C12.8153 28.3297 12.8602 28.3122 12.9501 28.3727C12.9931 28.404 13.0399 28.4079 13.2964 28.404C13.463 28.4001 13.609 28.4079 13.6277 28.4177C13.6464 28.4274 13.6988 28.5056 13.7456 28.5896C13.9048 28.8768 14.0657 29.0194 14.2043 28.9979C14.2885 28.9823 14.3316 28.9393 14.3971 28.8025C14.4289 28.7381 14.5038 28.6365 14.5712 28.5681C14.6367 28.5017 14.7078 28.4098 14.7303 28.3649C14.8201 28.1774 14.9587 28.3356 14.9867 28.656C15.0017 28.8338 15.0242 28.8787 15.0916 28.8611C15.2039 28.8299 15.6513 28.3688 15.7336 28.1949C15.7992 28.0582 15.7935 27.9957 15.7056 27.8589C15.6307 27.7437 15.6082 27.6557 15.6569 27.6557C15.6906 27.6557 15.7655 27.7163 15.9208 27.8706C15.9938 27.9429 16.0893 28.0211 16.1342 28.0465C16.342 28.1559 16.5292 28.0113 16.5292 27.7397C16.5292 27.7065 16.5367 27.6733 16.5479 27.6655C16.5573 27.6596 16.6078 27.6772 16.6621 27.7046C16.7258 27.7397 16.7744 27.7534 16.8044 27.7437C16.9916 27.6948 17.2911 27.3353 17.3641 27.0755C17.4053 26.9251 17.4371 26.8958 17.5681 26.8821C17.8527 26.8489 17.9575 26.675 17.8283 26.4523C17.7216 26.2687 17.7085 26.2394 17.7085 26.1671C17.7085 26.0733 17.7834 25.8955 17.8452 25.8447C17.8807 25.8154 17.9425 25.7998 18.0923 25.7842C18.3169 25.7607 18.4105 25.7217 18.4648 25.6259C18.5097 25.5458 18.4835 25.4677 18.4143 25.4677C18.3487 25.4677 18.2795 25.4032 18.2458 25.3075C18.184 25.1375 18.1129 24.5671 18.1503 24.5456C18.1597 24.5397 18.2345 24.5651 18.3169 24.6042C18.4816 24.6804 18.6389 24.7077 18.6632 24.6667C18.6894 24.6237 18.6613 24.5084 18.5883 24.3404C18.5041 24.1529 18.4348 24.0435 18.2944 23.8794C18.0623 23.6078 17.965 23.4027 17.9444 23.1272C17.9182 22.8029 17.8396 22.6662 17.6187 22.5529C17.4989 22.4923 17.4839 22.4884 17.2873 22.4903C17.117 22.4903 17.0627 22.4982 16.9785 22.5353C16.7089 22.6525 16.6865 22.6584 16.5573 22.6603C16.3869 22.6603 16.2559 22.6291 16.0668 22.5372C15.6644 22.3419 15.2731 21.9511 15.0841 21.5546C14.9774 21.3318 14.9549 21.2381 14.9268 20.9157C14.9025 20.6227 14.8988 20.6071 14.8257 20.4625C14.7846 20.3785 14.7509 20.3042 14.7509 20.2984C14.7509 20.2769 14.7977 20.3042 14.9399 20.4117C15.0186 20.4703 15.2582 20.611 15.4734 20.7262C16.0388 21.0271 16.1136 21.0974 16.3139 21.5174C16.4487 21.7968 16.5723 21.9433 16.7613 22.041C16.8793 22.0996 16.9167 22.1094 17.0477 22.1133C17.1919 22.1172 17.2593 22.0957 17.2593 22.0469C17.2593 22.0371 17.2069 21.9687 17.1413 21.8945C16.9972 21.7304 16.9654 21.6425 16.9991 21.494C17.029 21.3592 17.1189 21.1521 17.1544 21.1384C17.1713 21.1326 17.2312 21.1638 17.3004 21.2146C17.6056 21.4413 18.0867 21.6366 18.4143 21.6679C18.5715 21.6815 18.7081 21.6601 18.7156 21.6171C18.7194 21.5995 18.6651 21.5116 18.5958 21.4217C18.4405 21.2166 18.3824 21.0955 18.3824 20.9626C18.3824 20.8317 18.4367 20.7458 18.5584 20.6832C18.7943 20.5602 19.1275 20.6403 19.4176 20.8845C19.616 21.0544 19.7246 21.0232 19.7658 20.7848C19.7957 20.6188 19.7471 20.4215 19.6217 20.2144C19.5224 20.0483 19.5262 20.0346 19.719 19.8627C19.8107 19.7826 19.923 19.6635 19.9698 19.597C20.2544 19.1946 20.4041 18.6124 20.3798 18.0009C20.3667 17.6688 20.3311 17.4891 20.1907 17.0475C20.1346 16.8698 20.0784 16.6588 20.0672 16.5767C20.0335 16.3638 20.0653 16.2778 20.2431 16.0766C20.4079 15.8871 20.4696 15.7972 20.5707 15.5862C20.7317 15.2541 20.8253 14.8732 20.8122 14.6231C20.8066 14.5078 20.7972 14.4805 20.756 14.4355C20.7092 14.3867 20.7036 14.3867 20.6437 14.4101C20.5501 14.4512 20.2862 14.7384 20.23 14.8614C20.1814 14.9689 20.0634 15.1252 19.7957 15.4358C19.4195 15.8734 19.3128 16.0981 19.2866 16.5201C19.2679 16.7916 19.2641 16.7955 19.0432 16.6803C18.5977 16.4458 18.3356 16.4009 17.4839 16.4068C16.9691 16.4107 16.8493 16.4068 16.7033 16.3774C16.3926 16.3169 16.1193 16.2075 16.0013 16.1C15.9208 16.0278 15.8553 15.9144 15.8553 15.8519C15.8553 15.7269 16.0032 15.5374 16.153 15.469C16.2353 15.4319 16.4356 15.4299 17.1376 15.4534C17.5101 15.4651 17.6973 15.4651 17.8489 15.4475C18.3974 15.3831 18.7325 15.2483 18.9777 14.9943C19.1218 14.8439 19.1911 14.7188 19.2997 14.3984C19.4625 13.9217 19.588 13.7029 19.7826 13.5623C19.8238 13.533 19.953 13.4646 20.0709 13.4099C20.187 13.3571 20.3105 13.2907 20.3442 13.2634C20.5632 13.0914 20.4565 12.9527 20.0878 12.9312C19.6947 12.9078 19.3783 13.0289 19.0919 13.3122C18.9159 13.4841 18.8074 13.6404 18.6127 13.9999C18.3656 14.4512 18.2046 14.6016 17.9013 14.6641C17.819 14.6817 17.658 14.6856 17.3491 14.6758C16.0313 14.6387 15.8703 14.6387 15.6868 14.6719C15.4959 14.7071 15.3218 14.7813 15.2245 14.8712C15.1365 14.9533 15.0448 15.1252 14.9643 15.3616C14.9006 15.5472 14.8913 15.5647 14.88 15.5159C14.8613 15.4436 14.8913 15.1095 14.925 14.9923C14.9661 14.8556 15.0354 14.7442 15.1402 14.6407C15.3686 14.418 15.6999 14.332 16.3364 14.332C17.2742 14.332 17.7422 14.205 18.1541 13.8436C18.2682 13.744 18.3431 13.6619 18.7999 13.1305C19.1087 12.773 19.2323 12.6831 19.5992 12.5542C19.9492 12.4311 20.2263 12.2377 20.3405 12.0345C20.4022 11.9251 20.4097 11.761 20.3554 11.72C20.3068 11.6829 20.2637 11.6887 20.0859 11.7552C19.8238 11.8548 19.704 11.8841 19.1499 11.9896C18.7943 12.056 18.6913 12.1185 18.3001 12.5112C17.8826 12.9293 17.7366 13.0543 17.57 13.1422C17.2836 13.2888 17.1282 13.3083 16.0144 13.3337C15.4397 13.3474 15.2451 13.3571 15.1777 13.3806C15.129 13.3962 15.0148 13.4587 14.925 13.5193C14.7789 13.615 14.6947 13.6521 14.6947 13.6189C14.6947 13.574 14.7939 13.4236 14.8856 13.3317C15.1646 13.0504 15.7093 12.8844 16.6883 12.7789C17.0365 12.7417 17.1544 12.7222 17.3398 12.6714C17.7235 12.5659 18.096 12.3588 18.3918 12.0873C18.5883 11.9075 18.667 11.8704 19.4775 11.5969C19.6123 11.552 19.7826 11.4836 19.8594 11.4484C20.1439 11.3117 20.1926 11.2238 20.0204 11.1632C19.8313 11.0968 18.9122 11.13 18.5977 11.216C18.3319 11.2882 18.1877 11.3625 17.7834 11.634C17.3566 11.9212 17.1619 12.0189 16.8999 12.0756C16.7894 12.101 16.6471 12.1068 16.1361 12.101C15.4454 12.0951 15.5071 12.0873 15.187 12.226C15.1327 12.2494 15.0822 12.2631 15.0766 12.2553C15.056 12.2338 15.1795 12.0951 15.3199 11.9798C15.5221 11.8157 15.8104 11.6301 16.0893 11.4895C16.4562 11.3019 16.5929 11.255 17.1095 11.1281C18.5846 10.7686 19.6291 10.2274 20.2506 9.50068C20.786 8.87552 21.0275 8.10774 20.9975 7.12312C20.9863 6.7363 20.9582 6.55461 20.8684 6.27329C20.5239 5.2027 19.4101 4.53065 18.0829 4.59121C17.6655 4.6088 17.3547 4.67327 16.9972 4.81197C16.0856 5.16753 15.5034 5.83958 15.3387 6.72262C15.3237 6.80858 15.3031 7.07623 15.2919 7.31848C15.2713 7.79712 15.2376 8.01788 15.1515 8.2191C15.0129 8.54145 14.7902 8.55122 14.4495 8.25036C14.2005 8.0296 14.1369 8.00029 14.0957 8.08039C14.0601 8.15072 14.0714 8.5434 14.1144 8.68797C14.1874 8.93999 14.3652 9.14903 14.5787 9.23303C14.7846 9.31508 14.9437 9.30141 15.1964 9.18028C15.3686 9.09823 15.4192 9.09433 15.5015 9.15879C15.5371 9.18615 15.6812 9.27211 15.8235 9.3522C16.1735 9.54561 16.2484 9.64134 16.1885 9.82889C16.1511 9.94415 16.0687 9.99495 15.9133 9.99495C15.7542 9.99495 15.6363 9.93829 15.4847 9.79372C15.2956 9.61204 15.1814 9.57687 15.1084 9.67455C15.0504 9.7527 15.0541 9.96369 15.114 10.0887C15.2376 10.3427 15.5633 10.5107 15.9395 10.5107C16.2484 10.5107 16.4899 10.4247 16.6677 10.2489C17.0964 9.82694 17.0103 9.05135 16.4581 8.35976C16.4057 8.29529 16.3458 8.21129 16.3233 8.17417C16.2447 8.03937 16.2728 8.04718 16.533 8.22887C16.7501 8.38321 16.9822 8.51019 17.2555 8.62545C17.5532 8.74853 17.7834 8.94976 17.8414 9.12949C17.8733 9.23303 17.8527 9.42058 17.7965 9.5378C17.7703 9.5925 17.6954 9.70581 17.628 9.79177C17.4914 9.96564 17.4577 10.0262 17.4764 10.0555C17.4933 10.0848 17.6037 10.0653 17.789 9.9969C18.5172 9.73316 18.8635 9.18028 18.6277 8.65671C18.5116 8.39688 18.3338 8.22887 17.9481 8.01202C17.834 7.94755 17.7366 7.88503 17.7329 7.87331C17.7272 7.85963 17.819 7.84791 18.0137 7.83814C18.3412 7.82251 18.4779 7.80298 18.6408 7.75023C19.1312 7.58612 19.4738 7.22666 19.5412 6.80467C19.5842 6.53703 19.5037 6.29869 19.2922 6.07597C19.1069 5.88061 19.0189 5.8474 18.6913 5.84544C18.4105 5.84349 18.3263 5.87084 18.2757 5.9822C18.2102 6.12481 18.2888 6.1971 18.5453 6.22445C18.7287 6.24398 18.8223 6.28892 18.8841 6.38074C18.9889 6.54289 18.8804 6.77928 18.6389 6.91212C18.5266 6.97464 18.287 6.97268 18.1297 6.90822C17.7404 6.75193 17.4839 6.35729 17.5588 6.03104C17.585 5.91773 17.6879 5.7419 17.7946 5.6325C18.0118 5.40783 18.3319 5.33359 18.6838 5.42541C19.178 5.5563 19.6385 5.97047 19.88 6.50381C19.9867 6.73825 20.0316 6.93361 20.0428 7.22275C20.069 7.85768 19.9099 8.45354 19.5992 8.88333C19.4607 9.07674 19.178 9.3483 18.9496 9.50654C18.7362 9.65697 18.2682 9.90313 17.9706 10.0243C17.5831 10.1825 17.0103 10.37 16.4824 10.5127C15.992 10.6436 15.786 10.7197 15.4716 10.8838C14.8894 11.1886 14.4233 11.6165 14.0601 12.183C13.3918 13.2223 13.2683 14.4766 13.7325 15.5042C13.9291 15.9379 14.3222 16.4185 14.6928 16.6744C15.3012 17.0944 16.0687 17.2917 17.3716 17.3601C18.418 17.4148 18.7119 17.4578 19.0282 17.6141C19.2154 17.704 19.339 17.8173 19.4045 17.9579C19.558 18.2881 19.3371 18.9289 18.9403 19.304C18.2514 19.9565 17.0459 20.0112 15.9208 19.4407C15.3798 19.1672 14.9081 18.7492 14.5562 18.2295C14.4195 18.0302 14.2904 17.8739 13.7513 17.2566C13.1953 16.6197 12.9426 16.2876 12.7535 15.9496C12.688 15.8324 12.5775 15.6429 12.5045 15.5276C12.4334 15.4143 12.3735 15.3088 12.3735 15.2951C12.3735 15.2815 12.3997 15.2502 12.4315 15.2268C12.5495 15.1369 12.5701 15.006 12.5027 14.795C12.4315 14.5723 12.2556 14.2988 11.971 13.9706C11.6453 13.5955 11.4937 13.3864 11.4937 13.3122C11.4937 13.2516 11.5199 13.2731 11.6135 13.4157C11.9467 13.9217 12.615 14.3887 13.0605 14.4238C13.1915 14.4355 13.1972 14.4336 13.2514 14.375C13.3207 14.3047 13.3207 14.2871 13.2777 13.9706C13.2327 13.6346 13.2309 12.605 13.2758 12.3393C13.3469 11.9212 13.463 11.6204 13.6146 11.4621C13.7213 11.3488 13.7644 11.3293 13.9778 11.2941C14.412 11.2199 14.8482 10.9835 14.9961 10.7412C15.1047 10.5635 15.0466 10.4521 14.8239 10.4072C14.5056 10.3427 14.354 10.2724 14.2249 10.1317C13.9759 9.85819 13.8598 9.38932 13.7943 8.40079C13.7756 8.1097 13.7756 8.03546 13.7962 7.98466C13.8261 7.90847 13.8467 7.89675 14.0115 7.86549C14.3035 7.81079 14.5 7.74632 14.7097 7.63106C14.9587 7.49626 15.0878 7.34974 15.0878 7.20517C15.0878 7.12702 15.0279 7.05474 14.9062 6.98245C14.764 6.89845 14.618 6.75388 14.5562 6.63276C14.5262 6.5761 14.4645 6.41981 14.4214 6.28696C14.311 5.95289 14.2136 5.78293 14.0208 5.57975C13.8654 5.41564 13.7063 5.29061 13.4592 5.14214C13.3132 5.05227 13.2533 4.99952 13.2533 4.95263C13.2533 4.9331 13.2833 4.85105 13.3188 4.76704C13.4068 4.56386 13.4405 4.44078 13.4405 4.30989C13.4405 4.05592 13.2514 3.94456 12.9632 4.02662ZM10.4342 7.59199C10.4791 7.65059 10.5165 7.77758 10.4941 7.80102C10.4791 7.81665 9.61989 7.76977 9.4926 7.74828C9.37841 7.72679 9.34097 7.70139 9.34097 7.64864C9.34097 7.60175 9.37279 7.60175 9.49072 7.65059C9.62176 7.7053 9.66107 7.69943 9.73408 7.62129C9.76964 7.58417 9.80521 7.55291 9.81457 7.55291C9.82393 7.55291 9.86511 7.58417 9.90442 7.62129C9.9456 7.65841 9.99053 7.68967 10.0074 7.68967C10.0242 7.68967 10.0804 7.6545 10.1309 7.61152C10.2077 7.54705 10.2414 7.53338 10.305 7.53338C10.3724 7.53338 10.3949 7.54314 10.4342 7.59199ZM9.706 8.49847C9.73782 8.52387 9.73782 8.52973 9.68915 8.68797C9.6592 8.77784 9.62925 8.85989 9.62176 8.86966C9.60304 8.88919 9.39713 8.57075 9.39713 8.52582C9.39713 8.51019 9.40274 8.49065 9.41023 8.48479C9.43269 8.4594 9.67043 8.47112 9.706 8.49847ZM10.2882 8.49652C10.305 8.51214 10.1665 8.66648 10.1365 8.66648C10.1141 8.66648 9.97743 8.53363 9.97743 8.51019C9.97743 8.50042 9.9924 8.4887 10.0111 8.48284C10.056 8.46916 10.2732 8.47893 10.2882 8.49652Z" fill="white"/>
<path d="M120.943 4.61133L128.751 25.4662C129.05 26.2854 129.391 26.8388 129.775 27.1266C130.18 27.4144 130.554 27.5694 130.895 27.5916V28.2557C130.383 28.2114 129.775 28.1893 129.071 28.1893C128.388 28.1672 127.695 28.1561 126.991 28.1561C126.095 28.1561 125.263 28.1672 124.495 28.1893C123.727 28.1893 123.108 28.2114 122.639 28.2557V27.5916C123.727 27.5473 124.41 27.3591 124.687 27.027C124.986 26.6728 124.922 25.9311 124.495 24.802L118.735 8.66275L119.247 8.065L113.935 22.4775C113.551 23.4737 113.316 24.3039 113.231 24.9681C113.167 25.6323 113.22 26.1525 113.391 26.5289C113.583 26.9052 113.903 27.1709 114.351 27.3259C114.799 27.4809 115.354 27.5694 116.015 27.5916V28.2557C115.375 28.2114 114.724 28.1893 114.063 28.1893C113.423 28.1672 112.815 28.1561 112.239 28.1561C111.727 28.1561 111.268 28.1672 110.863 28.1893C110.479 28.1893 110.127 28.2114 109.807 28.2557V27.5916C110.255 27.4809 110.703 27.2041 111.151 26.7613C111.599 26.3186 112.026 25.5658 112.431 24.5032L119.855 4.61133C120.026 4.61133 120.207 4.61133 120.399 4.61133C120.591 4.61133 120.772 4.61133 120.943 4.61133ZM124.303 18.6917V19.3559H114.767L115.087 18.6917H124.303Z" fill="white"/>
<path d="M97.5575 4.74414C101.504 4.74414 104.437 5.74039 106.357 7.7329C108.277 9.70326 109.238 12.537 109.238 16.2343C109.238 18.6474 108.768 20.7617 107.829 22.5771C106.891 24.3703 105.525 25.7651 103.733 26.7613C101.963 27.7576 99.8082 28.2557 97.2695 28.2557C96.9495 28.2557 96.5122 28.2446 95.9575 28.2225C95.4242 28.2003 94.8695 28.1893 94.2935 28.1893C93.7175 28.1671 93.1948 28.1561 92.7255 28.1561C91.9148 28.1561 91.1148 28.1671 90.3255 28.1893C89.5575 28.1893 88.9282 28.2114 88.4375 28.2557V27.5915C89.1628 27.5473 89.7068 27.4587 90.0695 27.3259C90.4322 27.193 90.6668 26.9274 90.7735 26.5289C90.9015 26.1304 90.9655 25.5326 90.9655 24.7356V8.26423C90.9655 7.44509 90.9015 6.84734 90.7735 6.47098C90.6668 6.07248 90.4215 5.80681 90.0375 5.67398C89.6748 5.519 89.1415 5.43045 88.4375 5.40831V4.74414C88.9282 4.76628 89.5575 4.79949 90.3255 4.84376C91.1148 4.8659 91.8935 4.8659 92.6615 4.84376C93.4295 4.82163 94.2828 4.79949 95.2215 4.77735C96.1815 4.75521 96.9602 4.74414 97.5575 4.74414ZM97.0135 5.34189C96.0322 5.34189 95.3922 5.53007 95.0935 5.90643C94.7948 6.2828 94.6455 7.04659 94.6455 8.19781V24.802C94.6455 25.9532 94.7948 26.717 95.0935 27.0934C95.4135 27.4698 96.0642 27.6579 97.0455 27.6579C99.2002 27.6579 100.875 27.2262 102.07 26.3628C103.264 25.4773 104.107 24.1932 104.598 22.5106C105.088 20.8281 105.333 18.7802 105.333 16.3671C105.333 13.8875 105.067 11.8397 104.534 10.2235C104 8.58525 103.126 7.3676 101.91 6.5706C100.715 5.75146 99.0828 5.34189 97.0135 5.34189Z" fill="white"/>
<path d="M85.0395 4.74414C84.9542 5.58542 84.8902 6.40456 84.8475 7.20156C84.8262 7.97643 84.8155 8.57418 84.8155 8.99482C84.8155 9.41546 84.8262 9.81396 84.8475 10.1903C84.8688 10.5667 84.8902 10.8766 84.9115 11.1202H84.1755C84.0262 9.70326 83.7915 8.58525 83.4715 7.7661C83.1728 6.94696 82.7142 6.37135 82.0955 6.03927C81.4982 5.68504 80.6555 5.50793 79.5675 5.50793H77.3595C76.6768 5.50793 76.1542 5.57435 75.7915 5.70718C75.4502 5.81788 75.2155 6.06141 75.0875 6.43777C74.9595 6.79199 74.8955 7.35654 74.8955 8.1314V24.8684C74.8955 25.6212 74.9595 26.1857 75.0875 26.5621C75.2155 26.9384 75.4502 27.193 75.7915 27.3259C76.1542 27.4366 76.6768 27.4919 77.3595 27.4919H79.4395C80.6555 27.4919 81.6155 27.2927 82.3195 26.8942C83.0448 26.4957 83.5888 25.8426 83.9515 24.9349C84.3355 24.0272 84.6235 22.7874 84.8155 21.2155H85.5515C85.4875 21.8575 85.4555 22.6988 85.4555 23.7394C85.4555 24.1821 85.4662 24.8242 85.4875 25.6654C85.5302 26.5067 85.5942 27.3701 85.6795 28.2557C84.5915 28.2114 83.3648 28.1893 81.9995 28.1893C80.6342 28.1671 79.4182 28.1561 78.3515 28.1561C77.8608 28.1561 77.2315 28.1561 76.4635 28.1561C75.6955 28.1561 74.8635 28.1671 73.9675 28.1893C73.0928 28.1893 72.1968 28.2003 71.2795 28.2225C70.3835 28.2225 69.5195 28.2336 68.6875 28.2557V27.5915C69.4128 27.5473 69.9568 27.4587 70.3195 27.3259C70.6822 27.193 70.9168 26.9274 71.0235 26.5289C71.1515 26.1304 71.2155 25.5326 71.2155 24.7356V8.26423C71.2155 7.44509 71.1515 6.84734 71.0235 6.47098C70.9168 6.07248 70.6715 5.80681 70.2875 5.67398C69.9248 5.519 69.3915 5.43045 68.6875 5.40831V4.74414C69.5195 4.76628 70.3835 4.78842 71.2795 4.81056C72.1968 4.81056 73.0928 4.82163 73.9675 4.84376C74.8635 4.84376 75.6955 4.84376 76.4635 4.84376C77.2315 4.84376 77.8608 4.84376 78.3515 4.84376C79.3328 4.84376 80.4422 4.84376 81.6795 4.84376C82.9382 4.82163 84.0582 4.78842 85.0395 4.74414ZM79.7275 16.1014C79.7275 16.1014 79.7275 16.2121 79.7275 16.4335C79.7275 16.6549 79.7275 16.7656 79.7275 16.7656H73.9355C73.9355 16.7656 73.9355 16.6549 73.9355 16.4335C73.9355 16.2121 73.9355 16.1014 73.9355 16.1014H79.7275ZM80.6555 11.7179C80.5702 12.9798 80.5275 13.9429 80.5275 14.607C80.5488 15.2712 80.5595 15.88 80.5595 16.4335C80.5595 16.987 80.5702 17.5958 80.5915 18.26C80.6128 18.9241 80.6662 19.8872 80.7515 21.1491H80.0155C79.9088 20.4185 79.7702 19.7211 79.5995 19.057C79.4288 18.3707 79.1195 17.8172 78.6715 17.3965C78.2448 16.9759 77.5728 16.7656 76.6555 16.7656V16.1014C77.3382 16.1014 77.8715 15.9575 78.2555 15.6697C78.6608 15.3819 78.9702 15.0055 79.1835 14.5406C79.3968 14.0757 79.5462 13.5997 79.6315 13.1127C79.7382 12.6035 79.8342 12.1385 79.9195 11.7179H80.6555Z" fill="white"/>
<path d="M66.2027 4.74414V5.40831C65.4774 5.43045 64.9334 5.519 64.5707 5.67398C64.2081 5.80681 63.9627 6.07248 63.8347 6.47098C63.7281 6.84734 63.6747 7.44509 63.6747 8.26423V24.7356C63.6747 25.5326 63.7281 26.1304 63.8347 26.5289C63.9627 26.9274 64.2081 27.193 64.5707 27.3259C64.9334 27.4587 65.4774 27.5473 66.2027 27.5915V28.2557C65.6694 28.2114 65.0081 28.1893 64.2187 28.1893C63.4294 28.1671 62.6294 28.1561 61.8187 28.1561C60.9227 28.1561 60.0801 28.1671 59.2907 28.1893C58.5014 28.1893 57.8721 28.2114 57.4027 28.2557V27.5915C58.1281 27.5473 58.6721 27.4587 59.0347 27.3259C59.4187 27.193 59.6747 26.9274 59.8027 26.5289C59.9307 26.1304 59.9947 25.5326 59.9947 24.7356V6.5706L60.1547 6.63702L52.2827 28.3885H51.7707L43.5147 6.86948V23.8722C43.5147 24.802 43.5787 25.5326 43.7067 26.0639C43.8347 26.5731 44.1121 26.9384 44.5387 27.1598C44.9654 27.3812 45.6161 27.5251 46.4907 27.5915V28.2557C46.0854 28.2114 45.5627 28.1893 44.9227 28.1893C44.3041 28.1671 43.7174 28.1561 43.1627 28.1561C42.6294 28.1561 42.0961 28.1671 41.5627 28.1893C41.0294 28.1893 40.5921 28.2114 40.2507 28.2557V27.5915C40.9547 27.5251 41.4881 27.3923 41.8507 27.193C42.2134 26.9716 42.4587 26.6063 42.5867 26.0972C42.7147 25.588 42.7787 24.8906 42.7787 24.005V8.26423C42.7787 7.44509 42.7147 6.84734 42.5867 6.47098C42.4587 6.07248 42.2134 5.80681 41.8507 5.67398C41.4881 5.519 40.9547 5.43045 40.2507 5.40831V4.74414C40.5921 4.76628 41.0294 4.78842 41.5627 4.81056C42.0961 4.8327 42.6294 4.84376 43.1627 4.84376C43.7814 4.84376 44.4001 4.8327 45.0187 4.81056C45.6587 4.78842 46.2027 4.76628 46.6507 4.74414L53.7227 23.6065L53.1147 24.0382L60.0587 4.84376C60.3361 4.84376 60.6241 4.84376 60.9227 4.84376C61.2214 4.84376 61.5201 4.84376 61.8187 4.84376C62.6294 4.84376 63.4294 4.8327 64.2187 4.81056C65.0081 4.78842 65.6694 4.76628 66.2027 4.74414Z" fill="white"/>
<path d="M37.736 4.74414V5.40831C37.032 5.43045 36.4987 5.519 36.136 5.67398C35.7733 5.80681 35.528 6.07248 35.4 6.47098C35.272 6.84734 35.208 7.44509 35.208 8.26423V24.7356C35.208 25.5326 35.272 26.1304 35.4 26.5289C35.528 26.9274 35.7733 27.193 36.136 27.3259C36.4987 27.4587 37.032 27.5473 37.736 27.5915V28.2557C37.224 28.2114 36.5733 28.1893 35.784 28.1893C35.016 28.1671 34.2267 28.1561 33.416 28.1561C32.52 28.1561 31.6773 28.1671 30.888 28.1893C30.12 28.1893 29.4907 28.2114 29 28.2557V27.5915C29.7253 27.5473 30.2693 27.4587 30.632 27.3259C30.9947 27.193 31.2293 26.9274 31.336 26.5289C31.464 26.1304 31.528 25.5326 31.528 24.7356V8.26423C31.528 7.44509 31.464 6.84734 31.336 6.47098C31.2293 6.07248 30.984 5.80681 30.6 5.67398C30.2373 5.519 29.704 5.43045 29 5.40831V4.74414C29.4907 4.76628 30.12 4.78842 30.888 4.81056C31.6773 4.8327 32.52 4.84376 33.416 4.84376C34.2267 4.84376 35.016 4.8327 35.784 4.81056C36.5733 4.78842 37.224 4.76628 37.736 4.74414Z" fill="white"/>
</svg>
